<svg width="120" height="120" viewBox="0 0 120 120" xmlns="http://www.w3.org/2000/svg">
  <rect width="120" height="120" rx="26" fill="#14213D"/>
  <polygon points="60,60 60,18 96.4,39" fill="#1E4FFF"/>
  <polygon points="60,60 96.4,81 60,102" fill="#1E4FFF"/>
  <polygon points="60,60 23.6,81 23.6,39" fill="#1E4FFF"/>
  <g stroke="#FFFFFF" stroke-width="2.5" stroke-linejoin="round" fill="none">
    <polygon points="60,18 96.4,39 96.4,81 60,102 23.6,81 23.6,39"/>
    <line x1="60" y1="60" x2="60" y2="18"/>
    <line x1="60" y1="60" x2="96.4" y2="39"/>
    <line x1="60" y1="60" x2="96.4" y2="81"/>
    <line x1="60" y1="60" x2="60" y2="102"/>
    <line x1="60" y1="60" x2="23.6" y2="81"/>
    <line x1="60" y1="60" x2="23.6" y2="39"/>
  </g>
  <circle cx="60" cy="60" r="6" fill="#FFFFFF"/>
</svg>
